RobotoSerifTextWide-Hairline 02h.ufo
<glyph name="quotesingle" format="2">
  <advance width="277"/>
  <unicode hex="0027"/>
  <outline>
    <contour>
      <point x="162" y="710" type="line"/>
      <point x="162" y="626"/>
      <point x="154" y="582"/>
      <point x="154" y="456" type="curve"/>
      <point x="123" y="456" type="line"/>
      <point x="123" y="582"/>
      <point x="115" y="625"/>
      <point x="115" y="710" type="curve"/>
    </contour>
  </outline>
</glyph>
<glyph name="A" format="2">
  <advance width="785"/>
  <unicode hex="0041"/>
  <anchor x="383.4556" y="721.0" name="top"/>
  <anchor x="618.95" y="0.0" name="right"/>
  <anchor x="383.4556" y="0.0" name="bottom"/>
  <outline>
    <contour>
      <point x="207" y="298" type="line"/>
      <point x="207" y="268" type="line"/>
      <point x="573" y="268" type="line"/>
      <point x="573" y="298" type="line"/>
    </contour>
    <contour>
      <point x="382" y="703" type="line"/>
      <point x="654" y="40" type="line"/>
      <point x="654" y="33"/>
      <point x="599" y="30"/>
      <point x="554" y="30" type="curve" smooth="yes"/>
      <point x="535" y="30" type="line"/>
      <point x="535" y="0" type="line"/>
      <point x="773" y="0" type="line"/>
      <point x="773" y="30" type="line"/>
      <point x="767" y="30" type="line"/>
      <point x="728" y="30"/>
      <point x="703" y="32"/>
      <point x="692" y="58" type="curve" smooth="yes"/>
      <point x="421" y="710" type="line"/>
      <point x="361" y="710" type="line"/>
      <point x="99" y="74" type="line" smooth="yes"/>
      <point x="84" y="37"/>
      <point x="60" y="30"/>
      <point x="17" y="30" type="curve"/>
      <point x="12" y="30" type="line"/>
      <point x="12" y="0" type="line"/>
      <point x="245" y="0" type="line"/>
      <point x="245" y="30" type="line"/>
      <point x="227" y="30" type="line" smooth="yes"/>
      <point x="183" y="30"/>
      <point x="128" y="37"/>
      <point x="128" y="48" type="curve"/>
      <point x="393" y="693" type="line"/>
    </contour>
  </outline>
</glyph>
<glyph name="C" format="2">
  <advance width="795"/>
  <unicode hex="0043"/>
  <anchor x="412.016" y="741.0" name="top"/>
  <anchor x="412.016" y="0.0" name="bottom"/>
  <outline>
    <contour>
      <point x="418" y="690" type="curve" smooth="yes"/>
      <point x="562.4669117647059" y="690.0"/>
      <point x="653.973890696485" y="611.0783279105449"/>
      <point x="689" y="506" type="curve"/>
      <point x="719" y="506" type="line"/>
      <point x="719" y="710" type="line"/>
      <point x="692" y="710" type="line"/>
      <point x="679" y="548" type="line"/>
      <point x="696" y="567" type="line"/>
      <point x="651.0891843654774" y="660.8137037698917"/>
      <point x="549" y="720"/>
      <point x="418" y="720" type="curve" smooth="yes"/>
      <point x="220" y="720.0"/>
      <point x="54.0" y="569.0"/>
      <point x="54" y="355" type="curve" smooth="yes"/>
      <point x="54.0" y="138.0"/>
      <point x="203.3586956521739" y="-10.0"/>
      <point x="418" y="-10" type="curve" smooth="yes"/>
      <point x="588.625" y="-10.0"/>
      <point x="688" y="77"/>
      <point x="733" y="202" type="curve"/>
      <point x="700" y="215" type="line"/>
      <point x="666" y="107"/>
      <point x="579.2877697841727" y="20.0"/>
      <point x="418" y="20" type="curve" smooth="yes"/>
      <point x="230.33846153846153" y="20.0"/>
      <point x="97.0" y="156.0"/>
      <point x="97" y="355" type="curve" smooth="yes"/>
      <point x="97.0" y="557.0"/>
      <point x="243.3679245283019" y="690.0"/>
    </contour>
  </outline>
</glyph>
<glyph name="E" format="2">
  <advance width="692"/>
  <unicode hex="0045"/>
  <anchor x="404.43359999999996" y="741.0" name="top"/>
  <anchor x="473.6796" y="0.0" name="right"/>
  <anchor x="404.43359999999996" y="0.0" name="bottom"/>
  <outline>
    <contour>
      <point x="628" y="189" type="line"/>
      <point x="601" y="189" type="line"/>
      <point x="590" y="73" type="line" smooth="yes"/>
      <point x="587" y="37"/>
      <point x="545.0" y="30.0"/>
      <point x="445" y="30" type="curve" smooth="yes"/>
      <point x="204" y="30" type="line"/>
      <point x="204" y="680" type="line"/>
      <point x="412" y="680" type="line" smooth="yes"/>
      <point x="511.0" y="680.0"/>
      <point x="553" y="673"/>
      <point x="557" y="637" type="curve" smooth="yes"/>
      <point x="567" y="546" type="line"/>
      <point x="594" y="546" type="line"/>
      <point x="594" y="710" type="line"/>
      <point x="52" y="710" type="line"/>
      <point x="52" y="680" type="line"/>
      <point x="65" y="680" type="line" smooth="yes"/>
      <point x="122" y="680"/>
      <point x="164.0" y="673.0"/>
      <point x="164" y="644" type="curve" smooth="yes"/>
      <point x="164" y="66" type="line" smooth="yes"/>
      <point x="164" y="37"/>
      <point x="122" y="30"/>
      <point x="65" y="30" type="curve" smooth="yes"/>
      <point x="52" y="30" type="line"/>
      <point x="52" y="0" type="line"/>
      <point x="628" y="0" type="line"/>
    </contour>
    <contour>
      <point x="182" y="379" type="curve"/>
      <point x="182" y="350" type="line"/>
      <point x="290.68755017912474" y="348.9842285029988"/>
      <point x="372.96578727055135" y="348.0315381818519"/>
      <point x="504" y="346" type="curve"/>
      <point x="504" y="383" type="line"/>
      <point x="387.18666678426894" y="380.96846377016124"/>
      <point x="289.67177592208685" y="380.0157714709631"/>
    </contour>
  </outline>
</glyph>
<glyph name="H" format="2">
  <advance width="898"/>
  <unicode hex="0048"/>
  <anchor x="449" y="741.0" name="top"/>
  <anchor x="449" y="0.0" name="bottom"/>
  <outline>
    <contour>
      <point x="189" y="381" type="line"/>
      <point x="189" y="351" type="line"/>
      <point x="714" y="351" type="line"/>
      <point x="714" y="381" type="line"/>
    </contour>
    <contour>
      <point x="52" y="0" type="line"/>
      <point x="316" y="0" type="line"/>
      <point x="316" y="30" type="line"/>
      <point x="305" y="30" type="line" smooth="yes"/>
      <point x="261" y="30"/>
      <point x="204" y="33"/>
      <point x="204" y="40" type="curve" smooth="yes"/>
      <point x="204" y="670" type="line" smooth="yes"/>
      <point x="204" y="677"/>
      <point x="261" y="680"/>
      <point x="305" y="680" type="curve" smooth="yes"/>
      <point x="316" y="680" type="line"/>
      <point x="316" y="710" type="line"/>
      <point x="52" y="710" type="line"/>
      <point x="52" y="680" type="line"/>
      <point x="65" y="680" type="line" smooth="yes"/>
      <point x="122" y="680"/>
      <point x="164" y="673"/>
      <point x="164" y="644" type="curve" smooth="yes"/>
      <point x="164" y="66" type="line" smooth="yes"/>
      <point x="164" y="37"/>
      <point x="122" y="30"/>
      <point x="65" y="30" type="curve" smooth="yes"/>
      <point x="52" y="30" type="line"/>
    </contour>
    <contour>
      <point x="583" y="0" type="line"/>
      <point x="846" y="0" type="line"/>
      <point x="846" y="30" type="line"/>
      <point x="833" y="30" type="line" smooth="yes"/>
      <point x="777" y="30"/>
      <point x="734" y="37"/>
      <point x="734" y="66" type="curve" smooth="yes"/>
      <point x="734" y="644" type="line" smooth="yes"/>
      <point x="734" y="673"/>
      <point x="777" y="680"/>
      <point x="833" y="680" type="curve" smooth="yes"/>
      <point x="846" y="680" type="line"/>
      <point x="846" y="710" type="line"/>
      <point x="583" y="710" type="line"/>
      <point x="583" y="680" type="line"/>
      <point x="593" y="680" type="line" smooth="yes"/>
      <point x="637" y="680"/>
      <point x="694" y="677"/>
      <point x="694" y="670" type="curve" smooth="yes"/>
      <point x="694" y="40" type="line" smooth="yes"/>
      <point x="694" y="33"/>
      <point x="637" y="30"/>
      <point x="593" y="30" type="curve" smooth="yes"/>
      <point x="583" y="30" type="line"/>
    </contour>
  </outline>
</glyph>
<glyph name="I" format="2">
  <advance width="368"/>
  <unicode hex="0049"/>
  <anchor x="183.6964" y="741.0" name="top"/>
  <anchor x="238.3572" y="0.0" name="right"/>
  <anchor x="183.6964" y="0.0" name="bottom"/>
  <outline>
    <contour>
      <point x="164" y="66" type="line" smooth="yes"/>
      <point x="164.0" y="37.0"/>
      <point x="122" y="30"/>
      <point x="65" y="30" type="curve" smooth="yes"/>
      <point x="52" y="30" type="line"/>
      <point x="52" y="0" type="line"/>
      <point x="316" y="0" type="line"/>
      <point x="316" y="30" type="line"/>
      <point x="303" y="30" type="line" smooth="yes"/>
      <point x="246" y="30"/>
      <point x="204.0" y="37.0"/>
      <point x="204" y="66" type="curve" smooth="yes"/>
      <point x="204" y="644" type="line" smooth="yes"/>
      <point x="204" y="673"/>
      <point x="246" y="680"/>
      <point x="303" y="680" type="curve" smooth="yes"/>
      <point x="316" y="680" type="line"/>
      <point x="316" y="710" type="line"/>
      <point x="52" y="710" type="line"/>
      <point x="52" y="680" type="line"/>
      <point x="65" y="680" type="line" smooth="yes"/>
      <point x="122" y="680"/>
      <point x="164" y="673"/>
      <point x="164" y="644" type="curve" smooth="yes"/>
    </contour>
  </outline>
</glyph>
<glyph name="J" format="2">
  <advance width="607"/>
  <unicode hex="004A"/>
  <anchor x="407.05920000000003" y="741.0" name="top"/>
  <outline>
    <contour>
      <point x="280" y="710" type="line"/>
      <point x="280" y="680" type="line"/>
      <point x="304" y="680" type="line" smooth="yes"/>
      <point x="361" y="680"/>
      <point x="403" y="673"/>
      <point x="403" y="644" type="curve" smooth="yes"/>
      <point x="403" y="197" type="line" smooth="yes"/>
      <point x="403" y="64.47236180904522"/>
      <point x="331.0" y="20.0"/>
      <point x="228" y="20" type="curve" smooth="yes"/>
      <point x="138.0" y="20.0"/>
      <point x="90.8131812210635" y="51.305500656830134"/>
      <point x="62" y="83" type="curve"/>
      <point x="56" y="76"/>
      <point x="52" y="45"/>
      <point x="89" y="40" type="curve"/>
      <point x="89" y="128" type="line"/>
      <point x="39" y="128" type="line"/>
      <point x="39" y="52" type="line"/>
      <point x="70.83033859803366" y="21.13421711705827"/>
      <point x="137.0" y="-10.0"/>
      <point x="228" y="-10" type="curve" smooth="yes"/>
      <point x="354.0" y="-10.0"/>
      <point x="443" y="43.331877729257656"/>
      <point x="443" y="197" type="curve" smooth="yes"/>
      <point x="443" y="644" type="line" smooth="yes"/>
      <point x="443" y="673"/>
      <point x="486" y="680"/>
      <point x="542" y="680" type="curve" smooth="yes"/>
      <point x="555" y="680" type="line"/>
      <point x="555" y="710" type="line"/>
    </contour>
  </outline>
</glyph>
<glyph name="K" format="2">
  <advance width="780"/>
  <unicode hex="004B"/>
  <anchor x="393.5568" y="741.0" name="top"/>
  <anchor x="393.5568" y="0.0" name="bottom"/>
  <outline>
    <contour>
      <point x="52" y="0" type="line"/>
      <point x="316" y="0" type="line"/>
      <point x="316" y="30" type="line"/>
      <point x="305" y="30" type="line" smooth="yes"/>
      <point x="261" y="30"/>
      <point x="204.0" y="33.0"/>
      <point x="204" y="40" type="curve" smooth="yes"/>
      <point x="204" y="670" type="line" smooth="yes"/>
      <point x="204" y="677"/>
      <point x="261" y="680"/>
      <point x="305" y="680" type="curve" smooth="yes"/>
      <point x="316" y="680" type="line"/>
      <point x="316" y="710" type="line"/>
      <point x="52" y="710" type="line"/>
      <point x="52" y="680" type="line"/>
      <point x="65" y="680" type="line" smooth="yes"/>
      <point x="122" y="680"/>
      <point x="164" y="673"/>
      <point x="164" y="644" type="curve" smooth="yes"/>
      <point x="164" y="66" type="line" smooth="yes"/>
      <point x="164.0" y="37.0"/>
      <point x="122" y="30"/>
      <point x="65" y="30" type="curve" smooth="yes"/>
      <point x="52" y="30" type="line"/>
    </contour>
    <contour>
      <point x="513" y="0" type="line"/>
      <point x="763" y="0" type="line"/>
      <point x="763" y="30" type="line"/>
      <point x="751" y="30" type="line" smooth="yes"/>
      <point x="700" y="30"/>
      <point x="682" y="35"/>
      <point x="651" y="63" type="curve" smooth="yes"/>
      <point x="286" y="383" type="line"/>
      <point x="292" y="357" type="line"/>
      <point x="638" y="652" type="line" smooth="yes"/>
      <point x="663.7518305362559" y="673.956040486114"/>
      <point x="686.4615384615385" y="680"/>
      <point x="728" y="680" type="curve" smooth="yes"/>
      <point x="747" y="680" type="line"/>
      <point x="747" y="710" type="line"/>
      <point x="507" y="710" type="line"/>
      <point x="507" y="680" type="line"/>
      <point x="517" y="680" type="line" smooth="yes"/>
      <point x="560" y="680"/>
      <point x="608" y="677"/>
      <point x="610" y="670" type="curve"/>
      <point x="254" y="367" type="line"/>
      <point x="254" y="361" type="line"/>
      <point x="621" y="41" type="line"/>
      <point x="621" y="34"/>
      <point x="567" y="30"/>
      <point x="524" y="30" type="curve" smooth="yes"/>
      <point x="513" y="30" type="line"/>
    </contour>
  </outline>
</glyph>
<glyph name="P" format="2">
  <advance width="695"/>
  <unicode hex="0050"/>
  <outline>
    <contour>
      <point x="203" y="40" type="line" smooth="yes"/>
      <point x="203.0" y="33.0"/>
      <point x="254" y="30"/>
      <point x="293" y="30" type="curve" smooth="yes"/>
      <point x="325" y="30" type="line"/>
      <point x="325" y="0" type="line"/>
      <point x="52" y="0" type="line"/>
      <point x="52" y="30" type="line"/>
      <point x="65" y="30" type="line" smooth="yes"/>
      <point x="122" y="30"/>
      <point x="163.0" y="37.0"/>
      <point x="163" y="66" type="curve" smooth="yes"/>
      <point x="163" y="644" type="line" smooth="yes"/>
      <point x="163" y="673"/>
      <point x="122" y="680"/>
      <point x="65" y="680" type="curve" smooth="yes"/>
      <point x="52" y="680" type="line"/>
      <point x="52" y="710" type="line"/>
      <point x="381" y="710" type="line" smooth="yes"/>
      <point x="565.9861591695502" y="710"/>
      <point x="658.0" y="632.0"/>
      <point x="658" y="508" type="curve" smooth="yes"/>
      <point x="658.0" y="384.1904761904762"/>
      <point x="562.0677966101695" y="300"/>
      <point x="375" y="300" type="curve" smooth="yes"/>
      <point x="184" y="300" type="line"/>
      <point x="184" y="330" type="line"/>
      <point x="375" y="330" type="line" smooth="yes"/>
      <point x="534.0" y="330.0"/>
      <point x="615.0" y="399.0"/>
      <point x="615" y="507" type="curve" smooth="yes"/>
      <point x="615.0" y="616.6337209302326"/>
      <point x="533.0" y="680.0"/>
      <point x="381" y="680" type="curve" smooth="yes"/>
      <point x="203" y="680" type="line"/>
    </contour>
  </outline>
</glyph>
<glyph name="S" format="2">
  <advance width="718"/>
  <unicode hex="0053"/>
  <anchor x="403.15680000000003" y="741.0" name="top"/>
  <anchor x="403.15680000000003" y="0.0" name="bottom"/>
  <outline>
    <contour>
      <point x="415" y="20" type="curve" smooth="yes"/>
      <point x="272.8932384341637" y="20.0"/>
      <point x="152.0412774665161" y="91.8478630519835"/>
      <point x="117" y="221" type="curve"/>
      <point x="82" y="221" type="line"/>
      <point x="82" y="0" type="line"/>
      <point x="109" y="0" type="line"/>
      <point x="118" y="171" type="line"/>
      <point x="118.0" y="178.55555555555554"/>
      <point x="111.3322689908552" y="176.05644250762066"/>
      <point x="97" y="188" type="curve"/>
      <point x="141" y="64"/>
      <point x="255.5" y="-10.0"/>
      <point x="414" y="-10" type="curve" smooth="yes"/>
      <point x="548.0082644628098" y="-10.0"/>
      <point x="644" y="57"/>
      <point x="644" y="184" type="curve" smooth="yes"/>
      <point x="644.0" y="313"/>
      <point x="530" y="344"/>
      <point x="382" y="387" type="curve" smooth="yes"/>
      <point x="236" y="429"/>
      <point x="158.0" y="454"/>
      <point x="158" y="560" type="curve" smooth="yes"/>
      <point x="158.0" y="643"/>
      <point x="227" y="690.0"/>
      <point x="337" y="690" type="curve" smooth="yes"/>
      <point x="448" y="690"/>
      <point x="535" y="628"/>
      <point x="567" y="524" type="curve"/>
      <point x="598" y="524" type="line"/>
      <point x="598" y="710" type="line"/>
      <point x="572" y="710" type="line"/>
      <point x="561" y="565" type="line"/>
      <point x="578.3431797871759" y="558.496307579809"/>
      <point x="577.5989600530942" y="550.7326400353961"/>
      <point x="584" y="555" type="curve"/>
      <point x="556.9552848541507" y="657.1689238843195"/>
      <point x="461" y="720"/>
      <point x="338" y="720" type="curve" smooth="yes"/>
      <point x="209" y="720.0"/>
      <point x="118" y="661"/>
      <point x="118" y="555" type="curve" smooth="yes"/>
      <point x="118.0" y="434.0"/>
      <point x="220.0" y="395.0"/>
      <point x="374" y="350" type="curve" smooth="yes"/>
      <point x="505.0" y="312.0"/>
      <point x="604.0" y="293.0"/>
      <point x="604" y="177" type="curve" smooth="yes"/>
      <point x="604" y="70"/>
      <point x="526.8955223880597" y="20.0"/>
    </contour>
  </outline>
</glyph>
<glyph name="U" format="2">
  <advance width="903"/>
  <unicode hex="0055"/>
  <anchor x="451" y="741.0" name="top"/>
  <anchor x="515" y="0.0" name="right"/>
  <anchor x="453" y="0.0" name="bottom"/>
  <outline>
    <contour>
      <point x="204" y="259" type="curve" smooth="yes"/>
      <point x="204" y="670" type="line" smooth="yes"/>
      <point x="204" y="677"/>
      <point x="261" y="680"/>
      <point x="306" y="680" type="curve" smooth="yes"/>
      <point x="316" y="680" type="line"/>
      <point x="316" y="710" type="line"/>
      <point x="53" y="710" type="line"/>
      <point x="53" y="680" type="line"/>
      <point x="65" y="680" type="line" smooth="yes"/>
      <point x="122" y="680"/>
      <point x="164" y="673"/>
      <point x="164" y="644" type="curve" smooth="yes"/>
      <point x="164" y="259" type="line" smooth="yes"/>
      <point x="164" y="67.0"/>
      <point x="291.87889273356404" y="-10.0"/>
      <point x="455" y="-10" type="curve" smooth="yes"/>
      <point x="619.8432055749129" y="-10.0"/>
      <point x="740" y="62.0"/>
      <point x="740" y="250" type="curve" smooth="yes"/>
      <point x="740" y="635" type="line" smooth="yes"/>
      <point x="740" y="669"/>
      <point x="778" y="680"/>
      <point x="838" y="680" type="curve" smooth="yes"/>
      <point x="851" y="680" type="line"/>
      <point x="851" y="710" type="line"/>
      <point x="594" y="710" type="line"/>
      <point x="594" y="680" type="line"/>
      <point x="604" y="680" type="line" smooth="yes"/>
      <point x="648" y="680"/>
      <point x="704" y="672"/>
      <point x="704" y="658" type="curve" smooth="yes"/>
      <point x="704" y="250" type="line" smooth="yes"/>
      <point x="704" y="84.0"/>
      <point x="602.8259109311741" y="25.0"/>
      <point x="459" y="25" type="curve" smooth="yes"/>
      <point x="319.9090909090909" y="25.0"/>
      <point x="204" y="84.0"/>
    </contour>
  </outline>
</glyph>
<glyph name="X" format="2">
  <advance width="782"/>
  <unicode hex="0058"/>
  <outline>
    <contour>
      <point x="41" y="680" type="line"/>
      <point x="49" y="680" type="line" smooth="yes"/>
      <point x="92" y="680"/>
      <point x="117" y="679"/>
      <point x="141" y="648" type="curve" smooth="yes"/>
      <point x="371" y="352" type="line"/>
      <point x="378" y="348" type="line"/>
      <point x="621" y="40" type="line"/>
      <point x="621" y="33"/>
      <point x="567" y="30"/>
      <point x="526" y="30" type="curve" smooth="yes"/>
      <point x="506" y="30" type="line"/>
      <point x="506" y="0" type="line"/>
      <point x="759" y="0" type="line"/>
      <point x="759" y="30" type="line"/>
      <point x="747" y="30" type="line" smooth="yes"/>
      <point x="704" y="30"/>
      <point x="680" y="32"/>
      <point x="654" y="64" type="curve" smooth="yes"/>
      <point x="405" y="380" type="line"/>
      <point x="398" y="383" type="line"/>
      <point x="175" y="670" type="line"/>
      <point x="175" y="677"/>
      <point x="228" y="680"/>
      <point x="270" y="680" type="curve" smooth="yes"/>
      <point x="289" y="680" type="line"/>
      <point x="289" y="710" type="line"/>
      <point x="41" y="710" type="line"/>
    </contour>
    <contour>
      <point x="22" y="0" type="line"/>
      <point x="274" y="0" type="line"/>
      <point x="274" y="30" type="line"/>
      <point x="256" y="30" type="line" smooth="yes"/>
      <point x="213" y="30"/>
      <point x="158" y="37"/>
      <point x="158" y="48" type="curve"/>
      <point x="393" y="346" type="line"/>
      <point x="375" y="379" type="line"/>
      <point x="134" y="76" type="line" smooth="yes"/>
      <point x="104" y="39"/>
      <point x="76" y="30"/>
      <point x="34" y="30" type="curve" smooth="yes"/>
      <point x="22" y="30" type="line"/>
    </contour>
    <contour>
      <point x="408" y="361" type="line"/>
      <point x="624" y="635" type="line" smooth="yes"/>
      <point x="652" y="671"/>
      <point x="684" y="680"/>
      <point x="727" y="680" type="curve" smooth="yes"/>
      <point x="733" y="680" type="line"/>
      <point x="733" y="710" type="line"/>
      <point x="488" y="710" type="line"/>
      <point x="488" y="680" type="line"/>
      <point x="505" y="680" type="line" smooth="yes"/>
      <point x="549" y="680"/>
      <point x="601" y="673"/>
      <point x="601" y="662" type="curve"/>
      <point x="384" y="384" type="line"/>
    </contour>
  </outline>
</glyph>
<glyph name="asciicircum" format="2">
  <advance width="581"/>
  <unicode hex="005E"/>
  <outline>
    <contour>
      <point x="121" y="364" type="line"/>
      <point x="295" y="685" type="line"/>
      <point x="299" y="710" type="line"/>
      <point x="267" y="710" type="line"/>
      <point x="77" y="364" type="line"/>
    </contour>
    <contour>
      <point x="460" y="364" type="line"/>
      <point x="503" y="364" type="line"/>
      <point x="312" y="710" type="line"/>
      <point x="283" y="710" type="line"/>
      <point x="285" y="686" type="line"/>
    </contour>
  </outline>
</glyph>
<glyph name="a" format="2">
  <advance width="606"/>
  <unicode hex="0061"/>
  <anchor x="278.48080000000004" y="553.0" name="top"/>
  <anchor x="457.15520000000004" y="-10.0" name="right"/>
  <anchor x="309.998" y="0.0" name="bottom"/>
  <outline>
    <contour>
      <point x="441" y="306" type="line"/>
      <point x="173" y="290"/>
      <point x="67.0" y="235.38586956521738"/>
      <point x="67" y="123" type="curve" smooth="yes"/>
      <point x="67.0" y="40.378787878787875"/>
      <point x="125" y="-10.0"/>
      <point x="233" y="-10" type="curve" smooth="yes"/>
      <point x="313.0" y="-10.0"/>
      <point x="396" y="35"/>
      <point x="441" y="101" type="curve"/>
      <point x="441" y="151" type="line"/>
      <point x="412.1423542939054" y="83.3337962753644"/>
      <point x="324" y="21"/>
      <point x="234" y="21" type="curve" smooth="yes"/>
      <point x="156" y="21.0"/>
      <point x="110.0" y="60.386138613861384"/>
      <point x="110" y="123" type="curve" smooth="yes"/>
      <point x="110.0" y="216.3856209150327"/>
      <point x="192.98796456222706" y="253.99898087018857"/>
      <point x="441" y="275" type="curve"/>
    </contour>
    <contour>
      <point x="437" y="0" type="line"/>
      <point x="574" y="0" type="line"/>
      <point x="574" y="27" type="line"/>
      <point x="573" y="27" type="line"/>
      <point x="517" y="27"/>
      <point x="477" y="34"/>
      <point x="477" y="63" type="curve" smooth="yes"/>
      <point x="477" y="372" type="line" smooth="yes"/>
      <point x="477" y="484.68456375838923"/>
      <point x="386.9578947368421" y="518.0"/>
      <point x="289" y="518" type="curve" smooth="yes"/>
      <point x="200.05882352941177" y="518.0"/>
      <point x="132.0050695298826" y="486.0039605702208"/>
      <point x="100" y="461" type="curve"/>
      <point x="100" y="383" type="line"/>
      <point x="147" y="383" type="line"/>
      <point x="147" y="467" type="line"/>
      <point x="123.8270495228572" y="466.03446039678573"/>
      <point x="116.06705339082188" y="439.66473304589056"/>
      <point x="119" y="425" type="curve"/>
      <point x="149.8790588323593" y="460.85955219241725"/>
      <point x="207.03571428571428" y="488.0"/>
      <point x="289" y="488" type="curve" smooth="yes"/>
      <point x="384.70666666666665" y="488.0"/>
      <point x="437" y="460.65625"/>
      <point x="437" y="363" type="curve" smooth="yes"/>
      <point x="437" y="110" type="line"/>
      <point x="437" y="110" type="line"/>
    </contour>
  </outline>
</glyph>
<glyph name="c" format="2">
  <advance width="601"/>
  <unicode hex="0063"/>
  <anchor x="320.2188" y="551.0" name="top"/>
  <anchor x="333.2244" y="0.0" name="bottom"/>
  <outline>
    <contour>
      <point x="317" y="20" type="curve" smooth="yes"/>
      <point x="192.67256637168143" y="20.0"/>
      <point x="94.0" y="107.0"/>
      <point x="94" y="253" type="curve" smooth="yes"/>
      <point x="94.0" y="395.0"/>
      <point x="184.86885245901638" y="488.0"/>
      <point x="335" y="488" type="curve" smooth="yes"/>
      <point x="421.4" y="488.0"/>
      <point x="475.11728825829096" y="459.81873632809584"/>
      <point x="497" y="426" type="curve"/>
      <point x="508" y="435"/>
      <point x="505" y="452"/>
      <point x="479" y="461" type="curve"/>
      <point x="479" y="379" type="line"/>
      <point x="526" y="379" type="line"/>
      <point x="526" y="457" type="line"/>
      <point x="506.1702756867084" y="474.84675188196246"/>
      <point x="450.19072164948454" y="518.0"/>
      <point x="335" y="518" type="curve" smooth="yes"/>
      <point x="159.85017421602785" y="518.0"/>
      <point x="51.0" y="409.0"/>
      <point x="51" y="253" type="curve" smooth="yes"/>
      <point x="51.0" y="92.0"/>
      <point x="157.8" y="-10.0"/>
      <point x="318" y="-10" type="curve" smooth="yes"/>
      <point x="444.3659574468085" y="-10.0"/>
      <point x="510.1250888590788" y="54.2189055033879"/>
      <point x="550" y="124" type="curve"/>
      <point x="520" y="142" type="line"/>
      <point x="491.0887940599626" y="86.17146439165194"/>
      <point x="433.28155339805824" y="20.0"/>
    </contour>
  </outline>
</glyph>
<glyph name="e" format="2">
  <advance width="587"/>
  <unicode hex="0065"/>
  <anchor x="300.7072" y="551.0" name="top"/>
  <anchor x="465.4652" y="1.0" name="right"/>
  <anchor x="317.8876" y="0.0" name="bottom"/>
  <outline>
    <contour>
      <point x="314" y="-10" type="curve" smooth="yes"/>
      <point x="420.0228310502283" y="-10.0"/>
      <point x="485.1314718963313" y="34.19434975979409"/>
      <point x="531" y="102" type="curve"/>
      <point x="503" y="123" type="line"/>
      <point x="471.0891730281425" y="70.14769282786105"/>
      <point x="413.94240837696333" y="20.0"/>
      <point x="314" y="20" type="curve" smooth="yes"/>
      <point x="194.0900900900901" y="20.0"/>
      <point x="94.0" y="102.0"/>
      <point x="94" y="250" type="curve" smooth="yes"/>
      <point x="94.0" y="400.0"/>
      <point x="176.2206572769953" y="488.0"/>
      <point x="305" y="488" type="curve" smooth="yes"/>
      <point x="432.64921465968587" y="488.0"/>
      <point x="490.0000447417531" y="388.9986353765314"/>
      <point x="494" y="267" type="curve"/>
      <point x="510" y="282" type="line"/>
      <point x="73" y="282" type="line"/>
      <point x="73" y="252" type="line"/>
      <point x="535" y="252" type="line"/>
      <point x="534.0000003764377" y="402.99994315790275"/>
      <point x="462.62931034482756" y="518.0"/>
      <point x="305" y="518" type="curve" smooth="yes"/>
      <point x="152.203125" y="518.0"/>
      <point x="51.0" y="412.0"/>
      <point x="51" y="252" type="curve" smooth="yes"/>
      <point x="51.0" y="90.0"/>
      <point x="161.1622641509434" y="-10.0"/>
    </contour>
  </outline>
</glyph>
<glyph name="g" format="2">
  <advance width="635"/>
  <unicode hex="0067"/>
  <anchor x="295" y="545.0" name="top"/>
  <outline>
    <contour>
      <point x="294" y="187" type="curve" smooth="yes"/>
      <point x="194" y="187"/>
      <point x="123" y="241"/>
      <point x="123" y="336" type="curve" smooth="yes"/>
      <point x="123" y="431"/>
      <point x="196" y="488"/>
      <point x="294" y="488" type="curve" smooth="yes"/>
      <point x="393" y="488"/>
      <point x="466" y="431"/>
      <point x="466" y="336" type="curve" smooth="yes"/>
      <point x="466" y="241"/>
      <point x="394" y="187"/>
    </contour>
    <contour>
      <point x="294" y="157" type="curve" smooth="yes"/>
      <point x="413" y="157"/>
      <point x="508" y="227"/>
      <point x="508" y="336" type="curve" smooth="yes"/>
      <point x="508" y="444"/>
      <point x="412" y="518"/>
      <point x="294" y="518" type="curve" smooth="yes"/>
      <point x="176" y="518"/>
      <point x="81" y="444"/>
      <point x="81" y="336" type="curve" smooth="yes"/>
      <point x="81" y="227"/>
      <point x="175" y="157"/>
    </contour>
    <contour>
      <point x="458" y="429" type="line"/>
      <point x="494.94159172589383" y="479.2816109602444"/>
      <point x="531.9797435391288" y="487.0016880384059"/>
      <point x="604" y="481" type="curve"/>
      <point x="604" y="523" type="line"/>
      <point x="530" y="530"/>
      <point x="474" y="499"/>
      <point x="440" y="444" type="curve"/>
    </contour>
    <contour>
      <point x="319" y="-236" type="line" smooth="yes"/>
      <point x="467.08214285714286" y="-236"/>
      <point x="590.0" y="-176.71856287425152"/>
      <point x="590" y="-71" type="curve" smooth="yes"/>
      <point x="590.0" y="7.412844036697251"/>
      <point x="533" y="40"/>
      <point x="419" y="40" type="curve" smooth="yes"/>
      <point x="200" y="40" type="line" smooth="yes"/>
      <point x="141.29787234042553" y="40"/>
      <point x="111.0" y="56.0"/>
      <point x="111" y="94" type="curve" smooth="yes"/>
      <point x="111" y="131"/>
      <point x="152" y="160"/>
      <point x="213" y="182" type="curve"/>
      <point x="199" y="202" type="line"/>
      <point x="118" y="170"/>
      <point x="71" y="133"/>
      <point x="71" y="85" type="curve" smooth="yes"/>
      <point x="71" y="47"/>
      <point x="100" y="17"/>
      <point x="150" y="7" type="curve"/>
      <point x="153" y="2" type="line"/>
      <point x="418" y="2" type="line" smooth="yes"/>
      <point x="517.0" y="2"/>
      <point x="550.0" y="-20.578947368421055"/>
      <point x="550" y="-76" type="curve" smooth="yes"/>
      <point x="550.0" y="-153.8030303030303"/>
      <point x="453.76569037656907" y="-206"/>
      <point x="320" y="-206" type="curve" smooth="yes"/>
      <point x="285" y="-206" type="line" smooth="yes"/>
      <point x="145.08823529411765" y="-206"/>
      <point x="72.0" y="-172.0"/>
      <point x="72" y="-107" type="curve" smooth="yes"/>
      <point x="72" y="-59"/>
      <point x="111" y="-25"/>
      <point x="191" y="7" type="curve"/>
      <point x="181" y="26" type="line"/>
      <point x="79" y="-11"/>
      <point x="32" y="-49"/>
      <point x="32" y="-110" type="curve" smooth="yes"/>
      <point x="32.0" y="-203.0"/>
      <point x="148.1311475409836" y="-236"/>
      <point x="285" y="-236" type="curve" smooth="yes"/>
    </contour>
  </outline>
</glyph>
<glyph name="j" format="2">
  <advance width="285"/>
  <unicode hex="006A"/>
  <anchor x="151.72199999999998" y="551.0" name="top"/>
  <outline>
    <contour>
      <point x="132" y="-86" type="line" smooth="yes"/>
      <point x="132" y="-174.95384615384614"/>
      <point x="91.13513513513513" y="-204.0"/>
      <point x="24" y="-204" type="curve" smooth="yes"/>
      <point x="-16.258064516129032" y="-204.0"/>
      <point x="-46.565870067963914" y="-194.4780433106787"/>
      <point x="-72" y="-186" type="curve"/>
      <point x="-72" y="-220" type="line"/>
      <point x="-51.28899019962685" y="-228.47268582742538"/>
      <point x="-22.451612903225808" y="-236.0"/>
      <point x="24" y="-236" type="curve" smooth="yes"/>
      <point x="99.47019867549669" y="-236.0"/>
      <point x="172" y="-206.37037037037038"/>
      <point x="172" y="-86" type="curve" smooth="yes"/>
      <point x="172" y="508" type="line"/>
      <point x="36" y="508" type="line"/>
      <point x="36" y="483" type="line"/>
      <point x="48" y="481" type="line" smooth="yes"/>
      <point x="106" y="471"/>
      <point x="132" y="467"/>
      <point x="132" y="438" type="curve" smooth="yes"/>
    </contour>
    <contour>
      <point x="134" y="656" type="curve" smooth="yes"/>
      <point x="157" y="656"/>
      <point x="176.0" y="670.0"/>
      <point x="176" y="696" type="curve" smooth="yes"/>
      <point x="176.0" y="722.0"/>
      <point x="157" y="736"/>
      <point x="134" y="736" type="curve" smooth="yes"/>
      <point x="111" y="736"/>
      <point x="92.0" y="722.0"/>
      <point x="92" y="696" type="curve" smooth="yes"/>
      <point x="92.0" y="670.0"/>
      <point x="111" y="656"/>
    </contour>
  </outline>
</glyph>
<glyph name="q" format="2">
  <advance width="661"/>
  <unicode hex="0071"/>
  <outline>
    <contour>
      <point x="401" y="-223" type="line"/>
      <point x="657" y="-223" type="line"/>
      <point x="657" y="-196" type="line"/>
      <point x="655" y="-196" type="line"/>
      <point x="599" y="-196"/>
      <point x="560.0" y="-189.0"/>
      <point x="560" y="-160" type="curve" smooth="yes"/>
      <point x="560" y="511" type="line"/>
      <point x="535" y="511" type="line"/>
      <point x="520" y="381" type="line"/>
      <point x="520" y="381" type="line"/>
      <point x="520" y="-186" type="line" smooth="yes"/>
      <point x="520" y="-193"/>
      <point x="465" y="-196"/>
      <point x="435" y="-196" type="curve" smooth="yes"/>
      <point x="401" y="-196" type="line"/>
    </contour>
    <contour>
      <point x="301" y="-10" type="curve" smooth="yes"/>
      <point x="401" y="-10.0"/>
      <point x="466" y="33"/>
      <point x="525" y="120" type="curve"/>
      <point x="525" y="172" type="line"/>
      <point x="467" y="71"/>
      <point x="396" y="20"/>
      <point x="305" y="20" type="curve" smooth="yes"/>
      <point x="180" y="20.0"/>
      <point x="97.0" y="108.0"/>
      <point x="97" y="250" type="curve" smooth="yes"/>
      <point x="97" y="392"/>
      <point x="188" y="488"/>
      <point x="312" y="488" type="curve" smooth="yes"/>
      <point x="411" y="488"/>
      <point x="485" y="429"/>
      <point x="525" y="335" type="curve"/>
      <point x="525" y="394" type="line"/>
      <point x="486" y="467"/>
      <point x="411.0" y="518.0"/>
      <point x="308" y="518" type="curve" smooth="yes"/>
      <point x="158" y="518"/>
      <point x="54" y="408"/>
      <point x="54" y="250" type="curve" smooth="yes"/>
      <point x="54.0" y="93.0"/>
      <point x="150" y="-10.0"/>
    </contour>
  </outline>
</glyph>
<glyph name="s" format="2">
  <advance width="513"/>
  <unicode hex="0073"/>
  <anchor x="255.97560000000001" y="546.0" name="top"/>
  <anchor x="255.64440000000002" y="0.0" name="bottom"/>
  <outline>
    <contour>
      <point x="426" y="127" type="curve" smooth="yes"/>
      <point x="426.0" y="62.0"/>
      <point x="362.6134969325153" y="20.0"/>
      <point x="262" y="20" type="curve" smooth="yes"/>
      <point x="188.60109289617486" y="20.0"/>
      <point x="129.8495960500997" y="33.107018195121356"/>
      <point x="78" y="70" type="curve"/>
      <point x="78.97788593887383" y="58.26536873351414"/>
      <point x="82.40465038993057" y="42.501968750854694"/>
      <point x="95" y="27" type="curve"/>
      <point x="95" y="129" type="line"/>
      <point x="47" y="129" type="line"/>
      <point x="47" y="44" type="line"/>
      <point x="97" y="12"/>
      <point x="169" y="-10"/>
      <point x="262" y="-10" type="curve" smooth="yes"/>
      <point x="391" y="-10"/>
      <point x="466" y="52"/>
      <point x="466" y="132" type="curve" smooth="yes"/>
      <point x="466" y="225"/>
      <point x="391.11360676637486" y="247.6889927048863"/>
      <point x="279" y="279" type="curve" smooth="yes"/>
      <point x="194.93677257659397" y="302.7354995077852"/>
      <point x="113.0" y="313.0"/>
      <point x="113" y="390" type="curve" smooth="yes"/>
      <point x="113.0" y="448.0"/>
      <point x="167" y="488.0"/>
      <point x="264" y="488" type="curve" smooth="yes"/>
      <point x="326" y="488.0"/>
      <point x="376.6183339446557" y="473.42430977566534"/>
      <point x="405" y="447" type="curve"/>
      <point x="403.1463200164596" y="455.34155992593185"/>
      <point x="396.7771703746847" y="465.1909968216988"/>
      <point x="390" y="471" type="curve"/>
      <point x="390" y="395" type="line"/>
      <point x="438" y="395" type="line"/>
      <point x="438" y="473" type="line"/>
      <point x="404.7264270557597" y="494.17409187360744"/>
      <point x="350" y="518.0"/>
      <point x="264" y="518" type="curve" smooth="yes"/>
      <point x="148" y="518.0"/>
      <point x="73.0" y="467.0"/>
      <point x="73" y="385" type="curve" smooth="yes"/>
      <point x="73.0" y="296.0"/>
      <point x="163.52984985920068" y="271.1239956415295"/>
      <point x="255" y="247" type="curve" smooth="yes"/>
      <point x="360.42402732762463" y="219.1521437247784"/>
      <point x="426" y="204"/>
    </contour>
  </outline>
</glyph>
<glyph name="u" format="2">
  <advance width="660"/>
  <unicode hex="0075"/>
  <anchor x="302" y="551.0" name="top"/>
  <anchor x="475" y="0.0" name="right"/>
  <anchor x="303" y="0.0" name="bottom"/>
  <outline>
    <contour>
      <point x="160" y="508" type="line"/>
      <point x="23" y="508" type="line"/>
      <point x="23" y="481" type="line"/>
      <point x="25" y="481" type="line" smooth="yes"/>
      <point x="80" y="481"/>
      <point x="120" y="474"/>
      <point x="120" y="445" type="curve" smooth="yes"/>
      <point x="120" y="146" type="line" smooth="yes"/>
      <point x="120" y="38.447204968944106"/>
      <point x="182.0" y="-10.0"/>
      <point x="288" y="-10" type="curve" smooth="yes"/>
      <point x="373" y="-10"/>
      <point x="440" y="25"/>
      <point x="501" y="99" type="curve"/>
      <point x="501" y="143" type="line"/>
      <point x="443" y="69"/>
      <point x="379" y="23"/>
      <point x="295" y="23" type="curve" smooth="yes"/>
      <point x="195.0" y="23.0"/>
      <point x="160" y="64.45323741007194"/>
      <point x="160" y="157" type="curve" smooth="yes"/>
    </contour>
    <contour>
      <point x="537" y="508" type="line"/>
      <point x="391" y="508" type="line"/>
      <point x="391" y="481" type="line"/>
      <point x="393" y="481" type="line"/>
      <point x="456.77358490566036" y="481.0"/>
      <point x="497" y="474.0"/>
      <point x="497" y="445" type="curve" smooth="yes"/>
      <point x="497" y="117" type="line"/>
      <point x="497" y="116" type="line"/>
      <point x="497" y="0" type="line"/>
      <point x="634" y="0" type="line"/>
      <point x="634" y="27" type="line"/>
      <point x="630" y="27" type="line" smooth="yes"/>
      <point x="575.75" y="27"/>
      <point x="537" y="34.0"/>
      <point x="537" y="63" type="curve" smooth="yes"/>
    </contour>
  </outline>
</glyph>
<glyph name="y" format="2">
  <advance width="649"/>
  <unicode hex="0079"/>
  <anchor x="324.01" y="551.0" name="top"/>
  <anchor x="337.09839999999997" y="-211.0" name="bottom"/>
  <outline>
    <contour>
      <point x="313" y="-14" type="line"/>
      <point x="333" y="0" type="line"/>
      <point x="341" y="20" type="line"/>
      <point x="133" y="470" type="line"/>
      <point x="133.0" y="477.0"/>
      <point x="184.76470588235293" y="479"/>
      <point x="229" y="479" type="curve" smooth="yes"/>
      <point x="231" y="479" type="line"/>
      <point x="231" y="508" type="line"/>
      <point x="12" y="508" type="line"/>
      <point x="12" y="479" type="line"/>
      <point x="13" y="479" type="line"/>
      <point x="60" y="479"/>
      <point x="88" y="472"/>
      <point x="101" y="444" type="curve" smooth="yes"/>
    </contour>
    <contour>
      <point x="107" y="-230" type="curve" smooth="yes"/>
      <point x="229.4698275862069" y="-230.0"/>
      <point x="284.53618784014606" y="-145.0629441604385"/>
      <point x="338" y="-28" type="curve" smooth="yes"/>
      <point x="549" y="434" type="line" smooth="yes"/>
      <point x="566" y="471"/>
      <point x="583" y="479.0"/>
      <point x="640" y="479" type="curve"/>
      <point x="641" y="479" type="line"/>
      <point x="641" y="508" type="line"/>
      <point x="425" y="508" type="line"/>
      <point x="425" y="479" type="line"/>
      <point x="428" y="479" type="line" smooth="yes"/>
      <point x="493.0" y="479"/>
      <point x="524.0" y="473.2857142857143"/>
      <point x="524" y="463" type="curve"/>
      <point x="329" y="31" type="line"/>
      <point x="314" y="0" type="line"/>
      <point x="240.98550289250267" y="-154.03058293910394"/>
      <point x="197.5735294117647" y="-187.0"/>
      <point x="111" y="-187" type="curve" smooth="yes"/>
      <point x="66" y="-187.0"/>
      <point x="32" y="-169"/>
      <point x="26" y="-168" type="curve"/>
      <point x="26" y="-213" type="line"/>
      <point x="38" y="-220"/>
      <point x="70" y="-230.0"/>
    </contour>
  </outline>
</glyph>
<glyph name="braceleft" format="2">
  <advance width="350"/>
  <unicode hex="007B"/>
  <outline>
    <contour>
      <point x="246" y="245" type="curve" smooth="yes"/>
      <point x="246.0" y="266.0"/>
      <point x="237.2212317191682" y="273.38221467191426"/>
      <point x="118" y="299" type="curve"/>
      <point x="118" y="304" type="line"/>
      <point x="237.2212317191682" y="329.61778532808574"/>
      <point x="246.0" y="337.0"/>
      <point x="246" y="358" type="curve" smooth="yes"/>
      <point x="246.0" y="389.0"/>
      <point x="123.0" y="530.0"/>
      <point x="123" y="615" type="curve" smooth="yes"/>
      <point x="123.0" y="686.0"/>
      <point x="195.9166231141058" y="723.0292614215894"/>
      <point x="325" y="725" type="curve"/>
      <point x="310" y="751" type="line"/>
      <point x="189.5903363549284" y="748.0391066316786"/>
      <point x="83.0" y="717.0"/>
      <point x="83" y="616" type="curve" smooth="yes"/>
      <point x="83.0" y="537.0"/>
      <point x="163" y="439"/>
      <point x="217" y="354" type="curve"/>
      <point x="225" y="360" type="line"/>
      <point x="55" y="310" type="line"/>
      <point x="55" y="293" type="line"/>
      <point x="225" y="243" type="line"/>
      <point x="217" y="249" type="line"/>
      <point x="163" y="164"/>
      <point x="83.0" y="66.0"/>
      <point x="83" y="-13" type="curve" smooth="yes"/>
      <point x="83.0" y="-114.0"/>
      <point x="189.5903363549284" y="-145.03910663167858"/>
      <point x="310" y="-148" type="curve"/>
      <point x="325" y="-122" type="line"/>
      <point x="195.9166231141058" y="-120.0292614215894"/>
      <point x="123.0" y="-83.0"/>
      <point x="123" y="-12" type="curve" smooth="yes"/>
      <point x="123.0" y="73.0"/>
      <point x="246.0" y="214.0"/>
    </contour>
  </outline>
</glyph>
<glyph name="logicalnot" format="2">
  <advance width="650"/>
  <unicode hex="00AC"/>
  <outline>
    <contour>
      <point x="503" y="341" type="line"/>
      <point x="503" y="175" type="line"/>
      <point x="541" y="175" type="line"/>
      <point x="541" y="361" type="line"/>
      <point x="109" y="361" type="line"/>
      <point x="109" y="327" type="line"/>
      <point x="526" y="327" type="line"/>
    </contour>
  </outline>
</glyph>
<glyph name="ae" format="2">
  <advance width="976"/>
  <unicode hex="00E6"/>
  <anchor x="487.95759999999996" y="555.0" name="top"/>
  <outline>
    <contour>
      <point x="473" y="290" type="line"/>
      <point x="202" y="268"/>
      <point x="67" y="226"/>
      <point x="67" y="117" type="curve" smooth="yes"/>
      <point x="67" y="39"/>
      <point x="139" y="-10"/>
      <point x="244" y="-10" type="curve" smooth="yes"/>
      <point x="355" y="-10"/>
      <point x="439" y="52"/>
      <point x="483" y="138" type="curve"/>
      <point x="499" y="159"/>
      <point x="471" y="171"/>
      <point x="464" y="174" type="curve"/>
      <point x="424" y="83"/>
      <point x="347" y="21"/>
      <point x="246" y="21" type="curve" smooth="yes"/>
      <point x="155" y="21"/>
      <point x="110" y="59"/>
      <point x="110" y="117" type="curve" smooth="yes"/>
      <point x="110" y="207"/>
      <point x="220" y="239"/>
      <point x="472" y="259" type="curve"/>
    </contour>
    <contour>
      <point x="704" y="-10" type="curve" smooth="yes"/>
      <point x="812" y="-10"/>
      <point x="879" y="34"/>
      <point x="924" y="102" type="curve"/>
      <point x="898" y="126" type="line"/>
      <point x="864" y="73"/>
      <point x="808" y="21"/>
      <point x="704" y="21" type="curve" smooth="yes"/>
      <point x="579" y="21"/>
      <point x="483" y="105"/>
      <point x="483" y="250" type="curve" smooth="yes"/>
      <point x="483" y="396"/>
      <point x="572" y="487"/>
      <point x="693" y="487" type="curve" smooth="yes"/>
      <point x="818" y="487"/>
      <point x="875" y="413"/>
      <point x="881" y="265" type="curve"/>
      <point x="899" y="288" type="line"/>
      <point x="449" y="288" type="line"/>
      <point x="450" y="257" type="line"/>
      <point x="924" y="257" type="line"/>
      <point x="923" y="425"/>
      <point x="846" y="518"/>
      <point x="693" y="518" type="curve" smooth="yes"/>
      <point x="575" y="518"/>
      <point x="501" y="452"/>
      <point x="461" y="341" type="curve"/>
      <point x="446" y="336"/>
      <point x="439" y="296"/>
      <point x="439" y="252" type="curve" smooth="yes"/>
      <point x="439" y="92"/>
      <point x="556" y="-10"/>
    </contour>
    <contour>
      <point x="289" y="518" type="curve" smooth="yes"/>
      <point x="194" y="518"/>
      <point x="133" y="486"/>
      <point x="100" y="461" type="curve"/>
      <point x="100" y="383" type="line"/>
      <point x="151" y="383" type="line"/>
      <point x="151" y="467" type="line"/>
      <point x="124" y="466"/>
      <point x="117" y="438"/>
      <point x="120" y="423" type="curve"/>
      <point x="150" y="459"/>
      <point x="203" y="487"/>
      <point x="288" y="487" type="curve" smooth="yes"/>
      <point x="388" y="487"/>
      <point x="439" y="453"/>
      <point x="439" y="350" type="curve"/>
      <point x="439" y="267" type="line"/>
      <point x="475" y="359" type="line"/>
      <point x="475" y="481"/>
      <point x="390" y="518"/>
    </contour>
  </outline>
</glyph>
<glyph name="uhorn" format="2">
  <advance width="695"/>
  <unicode hex="01B0"/>
  <anchor x="319.2952" y="545.0" name="top"/>
  <outline>
    <contour>
      <point x="161" y="508" type="line"/>
      <point x="23" y="508" type="line"/>
      <point x="23" y="480" type="line"/>
      <point x="25" y="480" type="line" smooth="yes"/>
      <point x="80" y="480"/>
      <point x="120" y="473"/>
      <point x="120" y="444" type="curve" smooth="yes"/>
      <point x="120" y="151" type="line" smooth="yes"/>
      <point x="120" y="40"/>
      <point x="182" y="-10"/>
      <point x="289" y="-10" type="curve" smooth="yes"/>
      <point x="389" y="-10"/>
      <point x="461" y="40"/>
      <point x="533" y="143" type="curve"/>
      <point x="524" y="174" type="line"/>
      <point x="460" y="81"/>
      <point x="391" y="24"/>
      <point x="296" y="24" type="curve" smooth="yes"/>
      <point x="196" y="24"/>
      <point x="161" y="67"/>
      <point x="161" y="162" type="curve"/>
    </contour>
    <contour>
      <point x="539" y="507" type="line"/>
      <point x="444" y="498"/>
      <point x="497" y="491"/>
      <point x="507" y="485" type="curve"/>
      <point x="671" y="495"/>
      <point x="705" y="565"/>
      <point x="714" y="685" type="curve"/>
      <point x="672" y="685" type="line"/>
      <point x="660" y="545"/>
      <point x="617" y="508"/>
      <point x="411" y="508" type="curve" smooth="yes"/>
      <point x="392" y="508" type="line"/>
      <point x="392" y="480" type="line"/>
      <point x="392" y="480" type="line"/>
      <point x="457" y="480"/>
      <point x="498" y="473"/>
      <point x="498" y="444" type="curve" smooth="yes"/>
      <point x="498" y="107" type="line"/>
      <point x="497" y="115" type="line"/>
      <point x="497" y="0" type="line"/>
      <point x="639" y="0" type="line"/>
      <point x="639" y="28" type="line"/>
      <point x="635" y="28" type="line" smooth="yes"/>
      <point x="579" y="28"/>
      <point x="539" y="35"/>
      <point x="539" y="64" type="curve" smooth="yes"/>
    </contour>
  </outline>
</glyph>
<glyph name="minute" format="2">
  <advance width="279"/>
  <unicode hex="2032"/>
  <outline>
    <contour>
      <point x="186" y="710" type="line"/>
      <point x="173" y="616"/>
      <point x="156" y="573"/>
      <point x="141" y="457" type="curve"/>
      <point x="107" y="457" type="line"/>
      <point x="127" y="593"/>
      <point x="123" y="636"/>
      <point x="136" y="710" type="curve"/>
    </contour>
  </outline>
</glyph>
<glyph name="cedi" format="2">
  <advance width="650"/>
  <unicode hex="20B5"/>
  <outline>
    <contour>
      <point x="383" y="700" type="curve" smooth="yes"/>
      <point x="185" y="700"/>
      <point x="49" y="575"/>
      <point x="49" y="355" type="curve" smooth="yes"/>
      <point x="49" y="150"/>
      <point x="174" y="10"/>
      <point x="361" y="10" type="curve" smooth="yes"/>
      <point x="509" y="10"/>
      <point x="588" y="95"/>
      <point x="622" y="219" type="curve"/>
      <point x="590" y="236" type="line"/>
      <point x="564" y="127"/>
      <point x="498" y="41"/>
      <point x="360" y="41" type="curve" smooth="yes"/>
      <point x="194" y="41"/>
      <point x="92" y="165"/>
      <point x="92" y="355" type="curve" smooth="yes"/>
      <point x="92" y="562"/>
      <point x="208" y="669"/>
      <point x="383" y="669" type="curve" smooth="yes"/>
      <point x="483" y="669"/>
      <point x="546" y="637"/>
      <point x="576" y="601" type="curve"/>
      <point x="593" y="588"/>
      <point x="598" y="633"/>
      <point x="553" y="645" type="curve"/>
      <point x="553" y="539" type="line"/>
      <point x="603" y="539" type="line"/>
      <point x="603" y="632" type="line"/>
      <point x="565" y="664"/>
      <point x="482" y="700"/>
    </contour>
    <contour>
      <point x="333" y="790" type="line"/>
      <point x="333" y="687" type="line"/>
      <point x="333" y="679" type="line"/>
      <point x="333" y="32" type="line"/>
      <point x="333" y="25" type="line"/>
      <point x="333" y="-120" type="line"/>
      <point x="371" y="-120" type="line"/>
      <point x="371" y="27" type="line"/>
      <point x="371" y="32" type="line"/>
      <point x="371" y="679" type="line"/>
      <point x="371" y="686" type="line"/>
      <point x="371" y="790" type="line"/>
    </contour>
  </outline>
</glyph>
<glyph name="uni25B8" format="2">
  <advance width="665"/>
  <unicode hex="25B8"/>
  <outline>
    <contour>
      <point x="151" y="10" type="line"/>
      <point x="584" y="277" type="line"/>
      <point x="151" y="545" type="line"/>
    </contour>
  </outline>
</glyph>
<glyph name="uni25B9" format="2">
  <advance width="665"/>
  <unicode hex="25B9"/>
  <outline>
    <contour>
      <point x="151" y="545" type="line"/>
      <point x="151" y="10" type="line"/>
      <point x="584" y="277" type="line"/>
    </contour>
    <contour>
      <point x="215" y="460" type="line"/>
      <point x="196" y="453" type="line"/>
      <point x="492" y="272" type="line"/>
      <point x="492" y="283" type="line"/>
      <point x="196" y="102" type="line"/>
      <point x="215" y="95" type="line"/>
    </contour>
  </outline>
</glyph>
<glyph name="uni25BF" format="2">
  <advance width="726"/>
  <unicode hex="25BF"/>
  <outline>
    <contour>
      <point x="673" y="464" type="line"/>
      <point x="52" y="464" type="line"/>
      <point x="362" y="91" type="line"/>
    </contour>
    <contour>
      <point x="575" y="414" type="line"/>
      <point x="567" y="430" type="line"/>
      <point x="356" y="175" type="line"/>
      <point x="369" y="175" type="line"/>
      <point x="159" y="430" type="line"/>
      <point x="151" y="414" type="line"/>
    </contour>
  </outline>
</glyph>
<glyph name="blackdownpointingtriangle" format="2">
  <advance width="968"/>
  <outline>
    <contour>
      <point x="23" y="715" type="line"/>
      <point x="484" y="0" type="line"/>
      <point x="945" y="715" type="line"/>
    </contour>
  </outline>
</glyph>
<glyph name="dotaccentcomb" format="2">
  <anchor x="34.279199999999996" y="526.0" name="_top"/>
  <outline>
    <contour>
      <point x="-322" y="655" type="curve" smooth="yes"/>
      <point x="-297" y="655"/>
      <point x="-278" y="670"/>
      <point x="-278" y="696" type="curve" smooth="yes"/>
      <point x="-278" y="723"/>
      <point x="-297" y="737"/>
      <point x="-322" y="737" type="curve" smooth="yes"/>
      <point x="-347" y="737"/>
      <point x="-366" y="723"/>
      <point x="-366" y="696" type="curve" smooth="yes"/>
      <point x="-366" y="670"/>
      <point x="-347" y="655"/>
    </contour>
  </outline>
</glyph>
<glyph name="f_i" format="2">
  <advance width="720"/>
  <outline>
    <contour>
      <point x="40" y="508" type="line"/>
      <point x="40" y="480" type="line"/>
      <point x="510" y="480" type="line"/>
      <point x="510" y="508" type="line"/>
    </contour>
    <contour>
      <point x="548" y="655" type="curve" smooth="yes"/>
      <point x="573" y="655"/>
      <point x="592" y="670"/>
      <point x="592" y="696" type="curve" smooth="yes"/>
      <point x="592" y="723"/>
      <point x="573" y="737"/>
      <point x="548" y="737" type="curve" smooth="yes"/>
      <point x="523" y="737"/>
      <point x="504" y="723"/>
      <point x="504" y="696" type="curve" smooth="yes"/>
      <point x="504" y="670"/>
      <point x="523" y="655"/>
    </contour>
    <contour>
      <point x="539" y="38" type="line"/>
      <point x="539" y="31"/>
      <point x="487" y="28"/>
      <point x="455" y="28" type="curve" smooth="yes"/>
      <point x="442" y="28" type="line"/>
      <point x="442" y="0" type="line"/>
      <point x="678" y="0" type="line"/>
      <point x="678" y="28" type="line"/>
      <point x="676" y="28" type="line" smooth="yes"/>
      <point x="620" y="28"/>
      <point x="580" y="35"/>
      <point x="580" y="64" type="curve" smooth="yes"/>
      <point x="580" y="508" type="line"/>
      <point x="442" y="508" type="line"/>
      <point x="442" y="480" type="line"/>
      <point x="454" y="480" type="line" smooth="yes"/>
      <point x="513" y="480"/>
      <point x="539" y="466"/>
      <point x="539" y="437" type="curve"/>
    </contour>
    <contour>
      <point x="328" y="0" type="line"/>
      <point x="328" y="28" type="line"/>
      <point x="313" y="28" type="line" smooth="yes"/>
      <point x="250" y="28"/>
      <point x="202" y="31"/>
      <point x="202" y="38" type="curve"/>
      <point x="202" y="591" type="line" smooth="yes"/>
      <point x="202" y="690"/>
      <point x="245" y="724"/>
      <point x="317" y="724" type="curve" smooth="yes"/>
      <point x="354" y="724"/>
      <point x="383" y="715"/>
      <point x="406" y="707" type="curve"/>
      <point x="406" y="742" type="line"/>
      <point x="386" y="748"/>
      <point x="354" y="752"/>
      <point x="320" y="752" type="curve" smooth="yes"/>
      <point x="226" y="752"/>
      <point x="161" y="705"/>
      <point x="161" y="591" type="curve" smooth="yes"/>
      <point x="161" y="64" type="line" smooth="yes"/>
      <point x="161" y="35"/>
      <point x="123" y="28"/>
      <point x="59" y="28" type="curve" smooth="yes"/>
      <point x="46" y="28" type="line"/>
      <point x="46" y="0" type="line"/>
    </contour>
  </outline>
</glyph>
<glyph name="four.lin" format="2">
  <advance width="650"/>
  <outline>
    <contour>
      <point x="44" y="213" type="line"/>
      <point x="624" y="213" type="line"/>
      <point x="624" y="249" type="line"/>
      <point x="65" y="249" type="line"/>
      <point x="69" y="225" type="line"/>
      <point x="453" y="703" type="line"/>
      <point x="467" y="710" type="line"/>
      <point x="413" y="710" type="line"/>
      <point x="44" y="252" type="line"/>
    </contour>
    <contour>
      <point x="280" y="0" type="line"/>
      <point x="613" y="0" type="line"/>
      <point x="613" y="28" type="line"/>
      <point x="602" y="28" type="line" smooth="yes"/>
      <point x="526" y="28"/>
      <point x="475" y="35"/>
      <point x="475" y="64" type="curve" smooth="yes"/>
      <point x="475" y="710" type="line"/>
      <point x="434" y="710" type="line"/>
      <point x="434" y="692" type="line"/>
      <point x="434" y="64" type="line" smooth="yes"/>
      <point x="434" y="35"/>
      <point x="387" y="28"/>
      <point x="311" y="28" type="curve" smooth="yes"/>
      <point x="280" y="28" type="line"/>
    </contour>
  </outline>
</glyph>
<glyph name="nine.old" format="2">
  <advance width="650"/>
  <outline>
    <contour>
      <point x="110" y="-121" type="line"/>
      <point x="372" y="-105"/>
      <point x="546" y="45"/>
      <point x="546" y="275" type="curve" smooth="yes"/>
      <point x="546" y="443"/>
      <point x="454" y="527"/>
      <point x="319" y="527" type="curve" smooth="yes"/>
      <point x="179" y="527"/>
      <point x="96" y="439"/>
      <point x="96" y="329" type="curve" smooth="yes"/>
      <point x="96" y="225"/>
      <point x="174" y="148"/>
      <point x="302" y="148" type="curve" smooth="yes"/>
      <point x="418" y="148"/>
      <point x="511" y="222"/>
      <point x="563" y="310" type="curve"/>
      <point x="575" y="286" type="line"/>
      <point x="529" y="199"/>
      <point x="426" y="116"/>
      <point x="300" y="116" type="curve" smooth="yes"/>
      <point x="150" y="116"/>
      <point x="52" y="204"/>
      <point x="52" y="329" type="curve" smooth="yes"/>
      <point x="52" y="454"/>
      <point x="162" y="558"/>
      <point x="319" y="558" type="curve" smooth="yes"/>
      <point x="474" y="558"/>
      <point x="590" y="454"/>
      <point x="590" y="275" type="curve" smooth="yes"/>
      <point x="590" y="36"/>
      <point x="399" y="-136"/>
      <point x="115" y="-152" type="curve"/>
    </contour>
  </outline>
</glyph>
<glyph name="three.old" format="2">
  <advance width="650"/>
  <outline>
    <contour>
      <point x="325" y="-119" type="curve" smooth="yes"/>
      <point x="457" y="-119"/>
      <point x="544" y="-58"/>
      <point x="544" y="49" type="curve" smooth="yes"/>
      <point x="544" y="146"/>
      <point x="468" y="208"/>
      <point x="310" y="208" type="curve" smooth="yes"/>
      <point x="227" y="208" type="line"/>
      <point x="227" y="240" type="line"/>
      <point x="297" y="240" type="line" smooth="yes"/>
      <point x="416" y="240"/>
      <point x="507" y="287"/>
      <point x="507" y="382" type="curve" smooth="yes"/>
      <point x="507" y="485"/>
      <point x="427" y="527"/>
      <point x="326" y="527" type="curve" smooth="yes"/>
      <point x="225" y="527"/>
      <point x="163" y="491"/>
      <point x="131" y="459" type="curve"/>
      <point x="136" y="483"/>
      <point x="155" y="507"/>
      <point x="154" y="509" type="curve"/>
      <point x="154" y="406" type="line"/>
      <point x="103" y="406" type="line"/>
      <point x="103" y="487" type="line"/>
      <point x="138" y="516"/>
      <point x="207" y="558"/>
      <point x="328" y="558" type="curve" smooth="yes"/>
      <point x="458" y="558"/>
      <point x="551" y="493"/>
      <point x="551" y="394" type="curve" smooth="yes"/>
      <point x="551" y="275"/>
      <point x="424" y="219"/>
      <point x="299" y="219" type="curve"/>
      <point x="320" y="229" type="line"/>
      <point x="517" y="229"/>
      <point x="589" y="150"/>
      <point x="589" y="49" type="curve" smooth="yes"/>
      <point x="589" y="-68"/>
      <point x="478" y="-150"/>
      <point x="325" y="-150" type="curve" smooth="yes"/>
      <point x="176" y="-150"/>
      <point x="81" y="-79"/>
      <point x="37" y="14" type="curve"/>
      <point x="62" y="38" type="line"/>
      <point x="98" y="-39"/>
      <point x="181" y="-119"/>
    </contour>
  </outline>
</glyph>
<glyph name="two.lin" format="2">
  <advance width="650"/>
  <outline>
    <contour>
      <point x="327" y="720" type="curve" smooth="yes"/>
      <point x="459" y="720"/>
      <point x="571" y="654"/>
      <point x="571" y="527" type="curve" smooth="yes"/>
      <point x="571" y="355"/>
      <point x="326" y="180"/>
      <point x="97" y="24" type="curve"/>
      <point x="93" y="26"/>
      <point x="91" y="29"/>
      <point x="93" y="32" type="curve"/>
      <point x="398" y="32" type="line" smooth="yes"/>
      <point x="499" y="32"/>
      <point x="541" y="39"/>
      <point x="545" y="75" type="curve" smooth="yes"/>
      <point x="555" y="169" type="line"/>
      <point x="583" y="169" type="line"/>
      <point x="583" y="0" type="line"/>
      <point x="61" y="0" type="line"/>
      <point x="61" y="38" type="line"/>
      <point x="315" y="213"/>
      <point x="527" y="362"/>
      <point x="527" y="527" type="curve" smooth="yes"/>
      <point x="527" y="647"/>
      <point x="432" y="689"/>
      <point x="327" y="689" type="curve" smooth="yes"/>
      <point x="220" y="689"/>
      <point x="148" y="646"/>
      <point x="98" y="602" type="curve"/>
      <point x="115" y="635"/>
      <point x="103" y="641"/>
      <point x="132" y="644" type="curve"/>
      <point x="132" y="546" type="line"/>
      <point x="80" y="546" type="line"/>
      <point x="80" y="636" type="line"/>
      <point x="121" y="670"/>
      <point x="203" y="720"/>
    </contour>
  </outline>
</glyph>
<glyph name="whitediamond" format="2">
  <advance width="722"/>
  <outline>
    <contour>
      <point x="664" y="313" type="line"/>
      <point x="361" y="574" type="line"/>
      <point x="58" y="313" type="line"/>
      <point x="361" y="52" type="line"/>
    </contour>
    <contour>
      <point x="573" y="313" type="line"/>
      <point x="361" y="131" type="line"/>
      <point x="150" y="313" type="line"/>
      <point x="361" y="495" type="line"/>
    </contour>
  </outline>
</glyph>
